<?xml version="1.0" encoding="utf-8"?>
<!-- Generator: Adobe Illustrator 27.4.1, SVG Export Plug-In . SVG Version: 6.00 Build 0)  -->
<svg version="1.1" id="Layer_1" xmlns="http://www.w3.org/2000/svg" xmlns:xlink="http://www.w3.org/1999/xlink" x="0px" y="0px"
	 viewBox="0 0 156.8 55.5" style="enable-background:new 0 0 156.8 55.5;" xml:space="preserve">
<style type="text/css">
	.st0{fill:#FFFFFF;}
</style>
<g>
	<path class="st0" d="M0.5,32.1L1,22.2c0-0.4,0.7-0.4,1,0l6.9,12.7l6.4-12.7c0.2-0.4,1-0.4,1,0l0.5,9.9c0.1,2.1,0.3,4.3,0.5,6.4
		h-2.8c-0.1-2.1-0.1-4.3-0.3-6.4l-0.2-4.3l-3.9,7.7c-0.5,1-0.9,2.1-1,2.4c-0.1,0.3-0.4,0.3-0.8,0.3c-0.4,0-0.6-0.1-0.7-0.3L2.1,27.7
		l-0.2,4.4c-0.1,2.1-0.1,4.3-0.2,6.4H0C0.2,36.3,0.4,34.2,0.5,32.1"/>
	<path class="st0" d="M27.7,33.6V27c0-1.9-0.1-3.5-0.2-4.8h3c-0.1,1.3-0.2,2.9-0.2,4.8v6.7c0,1,0,1.9,0.1,2.7l8.2-14.2h3
		c-0.1,1.3-0.2,2.9-0.2,4.8v6.7c0,1.9,0.1,3.5,0.2,4.8h-3c0.1-1.3,0.2-2.9,0.2-4.8V27c0-1,0-1.9-0.1-2.7l-8.2,14.2h-3
		C27.6,37.1,27.7,35.5,27.7,33.6"/>
	<path class="st0" d="M52.5,34.5l3.7-8.3c0.8-1.8,1.1-3,1.2-3.8c0-0.2,1.7-0.5,1.8-0.3l5.3,12.5c0.6,1.3,1.2,2.6,1.8,3.9h-3
		l-5.4-12.9l-5.4,12.9h-1.8C51.3,37.1,51.9,35.8,52.5,34.5"/>
	<path class="st0" d="M74.2,38.3c0-0.3,0.6-0.5,3.8-5.5l-6-10.6h3.2c0.8,1.5,1.8,3.6,2.8,5.3l1.6,2.8c2.8-4.6,3.6-6.6,4.2-8.1h2.1
		c-1.9,2.9-3.6,5.8-5.3,8.8c-1.8,3.1-2.7,4.7-4,7.1c-0.2,0.3-0.3,0.5-0.7,0.5h-1.4C74.3,38.5,74.2,38.4,74.2,38.3"/>
	<path class="st0" d="M95.3,33.6V27c0-1.9-0.1-3.5-0.2-4.8h3c-0.1,1.3-0.2,2.9-0.2,4.8v2.2c0,0.6,0.6,0.6,1.1,0.6h6.2
		c0.5,0,1.1,0,1.1-0.6V27c0-1.9-0.1-3.5-0.2-4.8h3c-0.1,1.3-0.2,2.9-0.2,4.8v6.7c0,1.9,0.1,3.5,0.2,4.8h-3c0.1-1.3,0.2-2.9,0.2-4.8
		v-1.9c0-0.6-0.6-0.6-1.1-0.6H99c-0.5,0-1.1,0-1.1,0.6v1.9c0,1.9,0.1,3.5,0.2,4.8h-3C95.2,37.1,95.3,35.5,95.3,33.6"/>
	<path class="st0" d="M119.4,33.6V27c0-1.9-0.1-3.5-0.2-4.8h3c-0.1,1.3-0.2,2.9-0.2,4.8v6.7c0,1.9,0.1,3.5,0.2,4.8h-3
		C119.3,37.1,119.4,35.5,119.4,33.6 M127.2,35.3l-4.4-4.8c-0.1-0.2-0.1-0.3,0-0.5l4.4-5.3c1.1-1.3,2.1-2.7,4.1-2.7
		c0.5,0,1.1,0.1,1.4,0.3v2.3c-1.2-0.1-1.8-0.2-2.5-0.2c-0.8,0-1.5,0.1-2.1,1l-3.1,3.8l5.5,6c1.4,1.5,2.4,2.4,3.4,3.3h-3.7
		C129.4,37.6,128.5,36.8,127.2,35.3"/>
	<path class="st0" d="M143,34.5l3.7-8.3c0.8-1.8,1.1-3,1.2-3.8c0-0.2,1.7-0.5,1.8-0.3l5.3,12.5c0.6,1.3,1.2,2.6,1.8,3.9h-3l-1.7-4
		c-0.3-0.6-0.7-0.6-1.4-0.6H146c-0.7,0-1.1,0-1.4,0.6l-1.6,4h-1.8C141.9,37.1,142.5,35.8,143,34.5 M146.1,32.7h4.5
		c0.3,0,0.7,0,0.6-0.4l-2.8-6.8l-2.8,6.8C145.4,32.6,145.8,32.7,146.1,32.7"/>
	<path class="st0" d="M33.9,51.2V50c0-0.8,0-1.4-0.1-2c0.8,0,1.4,0,2,0c0.7,0,1.1,0,1.8,0c0.1,0,0.1,0,0.1,0.1l-0.1,0.5
		c0,0.1-0.1,0.1-0.1,0.1c-0.9-0.1-1.6-0.1-2-0.1c-0.3,0-0.4,0.1-0.5,0.4c0,0.4,0,0.8,0,1.1v1.1c0,0.8,0,1.5,0.1,2h-1.2
		C33.9,52.8,33.9,52.1,33.9,51.2"/>
	<path class="st0" d="M40.3,52.1c0-0.6,0.3-0.9,1.2-1.2l1.6-0.5c0.3-0.1,0.4-0.1,0.4-0.4v-0.5c0-0.7-0.4-0.8-0.8-0.8
		c-0.6,0-1.3,0.1-1.7,0.2c-0.1,0-0.2,0-0.2-0.1l0-0.2c0-0.3,1.6-0.7,2.5-0.7c1.3,0,1.3,1,1.3,1.8v1.8c0,1,0.1,1.4,0.2,1.7
		c0,0-0.1,0.1-0.3,0.1h-0.4c-0.2,0-0.4-0.3-0.7-0.7c-1.1,0.7-1.3,0.8-1.7,0.8C41.1,53.4,40.3,53,40.3,52.1 M42.3,52.6
		c0.6,0,1.2-0.4,1.2-1v-0.9c-0.1,0-0.1,0.1-0.3,0.1l-1.1,0.4c-0.4,0.1-0.6,0.3-0.6,0.7C41.6,52.4,41.8,52.6,42.3,52.6"/>
	<path class="st0" d="M48,50.8c0-1.3,0.8-2.9,2.8-2.9c0.7,0,1.6,0.2,1.5,0.5l-0.1,0.4c-0.2,1-0.8-0.2-1.9-0.2
		c-0.9,0-1.3,0.7-1.3,1.5c0,1.6,1.3,2.4,2.2,2.4c0.1,0,0.5-0.1,1-0.2c0.1,0,0.2,0.3,0.1,0.3c-0.4,0.2-1.2,0.7-1.4,0.7
		C49.8,53.4,48,52.7,48,50.8"/>
	<path class="st0" d="M57.2,51.2V49c0-0.2-0.1-0.3-0.3-0.3c-0.5,0-0.9,0-1.6,0.1c-0.1,0-0.1,0-0.1-0.1l0.1-0.5c0-0.1,0-0.1,0.1-0.1
		c0.5,0,0.8,0,1.8,0h1.2c0.9,0,1.2,0,1.7,0c0.1,0,0.1,0,0.1,0.1l-0.1,0.5c0,0,0,0.1-0.1,0.1c-0.7-0.1-0.9-0.1-1.4-0.1
		c-0.2,0-0.3,0.1-0.3,0.3v2.2c0,0.8,0,1.5,0.1,2h-1.2C57.2,52.8,57.2,52.1,57.2,51.2"/>
	<path class="st0" d="M63.6,53.6V50c0-0.7,0-1.4-0.1-1.8l1.1-0.3c0.1,0,0.2,0,0.2,0.1c-0.1,0.9,0.6-0.1,1.8-0.1
		c1.1,0,2.2,0.8,2.2,2.4c0,1.5-0.9,3.1-2.9,3.1c-0.1,0-0.9-0.3-1.1-0.4v0.6c0,0.8,0,1.5,0.1,1.9h-1.2C63.6,55,63.6,54.3,63.6,53.6
		 M66.2,52.8c0.9,0,1.4-0.7,1.4-1.9c0-1.4-0.7-2.3-1.6-2.3c-0.6,0-1.3,0.4-1.3,0.9v2.4C64.8,52.4,65.6,52.8,66.2,52.8"/>
	<path class="st0" d="M71.8,50.7c0-1.5,1.1-2.8,2.7-2.8c1.5,0,2.7,1.1,2.7,2.7c0,1.5-1.1,2.8-2.7,2.8C72.9,53.4,71.8,52.3,71.8,50.7
		 M74.8,52.8c0.6,0,1.3-0.3,1.3-1.6c0-1.5-0.8-2.6-1.9-2.6c-0.5,0-1.2,0.4-1.2,1.6C72.9,51.6,73.8,52.8,74.8,52.8"/>
	<path class="st0" d="M84.3,52.1c0-0.6,0.3-0.9,1.2-1.2l1.6-0.5c0.3-0.1,0.4-0.1,0.4-0.4v-0.5c0-0.7-0.4-0.8-0.8-0.8
		c-0.6,0-1.3,0.1-1.7,0.2c-0.1,0-0.2,0-0.2-0.1l0-0.2c0-0.3,1.6-0.7,2.5-0.7c1.3,0,1.3,1,1.3,1.8v1.8c0,1,0.1,1.4,0.2,1.7
		c0,0-0.1,0.1-0.3,0.1h-0.4c-0.2,0-0.4-0.3-0.7-0.7c-1.1,0.7-1.3,0.8-1.7,0.8C85.1,53.4,84.3,53,84.3,52.1 M86.3,52.6
		c0.6,0,1.2-0.4,1.2-1v-0.9c-0.1,0-0.1,0.1-0.3,0.1l-1.1,0.4c-0.4,0.1-0.6,0.3-0.6,0.7C85.5,52.4,85.8,52.6,86.3,52.6"/>
	<path class="st0" d="M93.8,51.2V49c0-0.2-0.1-0.3-0.3-0.3c-0.5,0-0.9,0-1.6,0.1c-0.1,0-0.1,0-0.1-0.1l0.1-0.5c0-0.1,0-0.1,0.1-0.1
		c0.5,0,0.8,0,1.8,0h1.2c0.9,0,1.2,0,1.7,0c0.1,0,0.1,0,0.1,0.1l-0.1,0.5c0,0,0,0.1-0.1,0.1c-0.7-0.1-0.9-0.1-1.4-0.1
		C95,48.7,95,48.8,95,49v2.2c0,0.8,0,1.5,0.1,2h-1.2C93.8,52.8,93.8,52.1,93.8,51.2"/>
	<path class="st0" d="M99.6,50.8c0-1.3,0.8-2.9,2.8-2.9c1.7,0,1.9,1.2,1.9,1.7c0,0.3-0.1,0.7-0.2,0.9l-3.3,0.1c0.2,1.4,1.4,2,2.2,2
		c0.1,0,0.6-0.1,1.2-0.2c0.1,0,0.2,0.3,0.1,0.3c-0.4,0.2-1.3,0.7-1.5,0.7C101.3,53.4,99.6,52.8,99.6,50.8 M103.1,50
		c0.1-0.6-0.1-1.4-1.2-1.4c-0.9,0-1.3,0.6-1.3,1.5L103.1,50z"/>
	<path class="st0" d="M109.2,48.1l0.7-0.1l1,2.4h1.3c1.7,0,2.3,0.6,2.3,1.4c0,1-0.9,1.5-2.1,1.5h-1.5c-0.2-0.6-0.4-1.2-0.7-1.8
		l-0.9-2.1l-0.8,2.1c-0.3,0.7-0.4,1.2-0.6,1.8H107l1.8-4.1C109.1,48.6,109.1,48.4,109.2,48.1 M111.6,52L111.6,52
		c0.2,0.5,0.5,0.7,0.9,0.7c0.4,0,0.8-0.3,0.8-0.9c0-0.8-0.5-1-1.3-1h-0.9L111.6,52z"/>
	<path class="st0" d="M117.6,50.8c0-1.3,0.8-2.9,2.8-2.9c1.7,0,1.9,1.2,1.9,1.7c0,0.3-0.1,0.7-0.2,0.9l-3.3,0.1c0.2,1.4,1.4,2,2.2,2
		c0.1,0,0.6-0.1,1.2-0.2c0.1,0,0.2,0.3,0.1,0.3c-0.4,0.2-1.3,0.7-1.5,0.7C119.3,53.4,117.6,52.8,117.6,50.8 M121.1,50
		c0.1-0.6-0.1-1.4-1.2-1.4c-0.9,0-1.3,0.6-1.3,1.5L121.1,50z"/>
</g>
</svg>
