<svg xmlns="http://www.w3.org/2000/svg" width="86.36" height="11.131" viewBox="0 0 86.36 11.131">
  <path fill="#00000" d="M0.3,6.7l0.3-5.4c0-0.2,0.4-0.2,0.5,0l3.8,7l3.5-7c0.1-0.2,0.5-0.2,0.5,0l0.3,5.4c0.1,1.2,0.2,2.3,0.3,3.5
    H7.9C7.9,9.1,7.9,7.9,7.8,6.7L7.7,4.4L5.5,8.6C5.2,9.1,5.1,9.7,5,9.9c0,0.2-0.2,0.2-0.5,0.2c-0.2,0-0.3,0-0.4-0.2l-3-5.6L1,6.7
    C1,7.9,1,9.1,0.9,10.3H0C0.1,9.1,0.2,7.9,0.3,6.7z"/>
 <path fill="#00000" d="M15.2,7.6V3.9c0-1-0.1-1.9-0.1-2.7h1.6c0,0.7-0.1,1.6-0.1,2.7v3.7c0,0.6,0,1.1,0,1.5l4.5-7.8h1.6
    c0,0.7-0.1,1.6-0.1,2.7v3.7c0,1,0.1,1.9,0.1,2.7h-1.6c0-0.7,0.1-1.6,0.1-2.7V3.9c0-0.6,0-1.1,0-1.5l-4.5,7.8h-1.6
    C15.2,9.5,15.2,8.7,15.2,7.6z"/>
  <path fill="#00000" d="M28.9,8.1l2-4.6c0.4-1,0.6-1.7,0.7-2.1c0-0.1,0.9-0.3,1-0.2l2.9,6.9c0.3,0.7,0.6,1.4,1,2.2h-1.6l-3-7.1
    l-3,7.1h-1C28.2,9.5,28.6,8.8,28.9,8.1z"/>
  <path fill="#00000" d="M40.8,10.2c0-0.2,0.3-0.3,2.1-3l-3.3-5.8h1.8c0.4,0.8,1,2,1.5,2.9l0.9,1.6c1.6-2.6,2-3.6,2.3-4.5h1.2
    c-1.1,1.6-2,3.2-2.9,4.8c-1,1.7-1.5,2.6-2.2,3.9c-0.1,0.2-0.2,0.3-0.4,0.3H41C40.9,10.3,40.8,10.2,40.8,10.2z"/>
  <path fill="#00000"  d="M52.5,7.6V3.9c0-1-0.1-1.9-0.1-2.7H54c0,0.7-0.1,1.6-0.1,2.7v1.2c0,0.3,0.3,0.3,0.6,0.3h3.4
    c0.3,0,0.6,0,0.6-0.3V3.9c0-1-0.1-1.9-0.1-2.7H60c0,0.7-0.1,1.6-0.1,2.7v3.7c0,1,0.1,1.9,0.1,2.7h-1.6c0-0.7,0.1-1.6,0.1-2.7V6.5
    c0-0.3-0.3-0.3-0.6-0.3h-3.4c-0.3,0-0.6,0-0.6,0.3v1.1c0,1,0.1,1.9,0.1,2.7h-1.6C52.4,9.5,52.5,8.7,52.5,7.6z"/>
  <path fill="#00000"  d="M65.8,7.6V3.9c0-1-0.1-1.9-0.1-2.7h1.6c0,0.7-0.1,1.6-0.1,2.7v3.7c0,1,0.1,1.9,0.1,2.7h-1.6
    C65.7,9.5,65.8,8.7,65.8,7.6z M70,8.5l-2.4-2.7c-0.1-0.1-0.1-0.2,0-0.3L70,2.7c0.6-0.7,1.2-1.5,2.3-1.5c0.3,0,0.6,0.1,0.8,0.2v1.3
    c-0.7-0.1-1-0.1-1.4-0.1c-0.4,0-0.8,0.1-1.2,0.5l-1.7,2.1l3.1,3.3c0.7,0.8,1.3,1.3,1.9,1.8h-2.1C71.2,9.8,70.8,9.3,70,8.5z"/>
  <path fill="#00000" d="M78.8,8.1l2-4.6c0.4-1,0.6-1.7,0.7-2.1c0-0.1,0.9-0.3,1-0.2l2.9,6.9c0.3,0.7,0.6,1.4,1,2.2h-1.6l-0.9-2.2
    c-0.1-0.3-0.4-0.3-0.8-0.3h-2.6c-0.4,0-0.6,0-0.7,0.3l-0.9,2.2h-1C78.1,9.5,78.5,8.8,78.8,8.1z M80.5,7.1H83c0.2,0,0.4,0,0.3-0.2
    l-1.6-3.7l-1.6,3.7C80.1,7.1,80.3,7.1,80.5,7.1z"/>
</svg>